<svg height="512pt" viewBox="0 0 512 512" width="512pt" xmlns="http://www.w3.org/2000/svg" xmlns:xlink="http://www.w3.org/1999/xlink"><linearGradient id="a" gradientUnits="userSpaceOnUse" x1="255.5010565" x2="255.5010565" y1="0" y2="512.000163"><stop offset="0" stop-color="#2af598"/><stop offset="1" stop-color="#009efd"/></linearGradient><path d="m121.761719 100.902344c0 11.023437-8.9375 19.960937-19.960938 19.960937-11.023437 0-19.960937-8.9375-19.960937-19.960937 0-11.027344 8.9375-19.960938 19.960937-19.960938 11.023438 0 19.960938 8.933594 19.960938 19.960938zm-8.40625 144.058594-13.550781 12.527343-13.550782-12.527343c-.859375-.796876-21.339844-19.808594-42.027344-45.964844-29.347656-37.105469-44.226562-69.671875-44.226562-96.792969v-2.445313c0-55.007812 44.773438-99.757812 99.804688-99.757812s99.804687 44.75 99.804687 99.761719v2.441406c0 27.121094-14.878906 59.6875-44.226563 96.792969-20.6875 26.15625-41.167968 45.167968-42.027343 45.964844zm-13.550781-42.878907c6.96875-7.324219 15.824218-17.140625 24.589843-28.257812 22.757813-28.867188 35.292969-54.300781 35.292969-71.621094v-2.441406c0-32.996094-26.863281-59.839844-59.882812-59.839844-33.019532 0-59.882813 26.84375-59.882813 59.839844v2.441406c0 17.320313 12.535156 42.753906 35.296875 71.621094 8.765625 11.117187 17.617188 20.933593 24.585938 28.257812zm411.195312 249.035157c0 33.019531-26.863281 59.882812-59.882812 59.882812-26.019532 0-48.207032-16.6875-56.449219-39.921875h-167.214844c-7.949219 23.753906-30.394531 40.921875-56.785156 40.921875-33.019531 0-59.882813-26.863281-59.882813-59.882812 0-33.019532 26.863282-59.882813 59.882813-59.882813 11.101562 0 21.5 3.046875 30.421875 8.335937l107.808594-134.339843c-1.480469-2.46875-2.785157-5.054688-3.902344-7.734375h-148.667969c8.503906-8.871094 19.441406-20.921875 30.367187-34.734375 1.375-1.738281 2.710938-3.464844 4.03125-5.1875h112.152344c7.335938-24.78125 30.292969-42.917969 57.417969-42.917969 33.019531 0 59.882813 26.863281 59.882813 59.882812 0 33.019532-26.863282 59.882813-59.882813 59.882813-7.265625 0-14.230469-1.300781-20.679687-3.683594l-111.886719 139.417969h166.9375c8.242187-23.230469 30.429687-39.921875 56.449219-39.921875 33.019531 0 59.882812 26.863281 59.882812 59.882813zm-170.664062-215.578126c0 11.007813 8.953124 19.960938 19.960937 19.960938s19.960937-8.953125 19.960937-19.960938c0-11.003906-8.953124-19.960937-19.960937-19.960937s-19.960937 8.957031-19.960937 19.960937zm-149.707032 216.578126c0-11.007813-8.957031-19.960938-19.960937-19.960938-11.007813 0-19.960938 8.953125-19.960938 19.960938 0 11.007812 8.953125 19.960937 19.960938 19.960937 11.003906 0 19.960937-8.953125 19.960937-19.960937zm280.449219-1c0-11.003907-8.953125-19.960938-19.960937-19.960938-11.003907 0-19.960938 8.957031-19.960938 19.960938 0 11.007812 8.957031 19.960937 19.960938 19.960937 11.007812 0 19.960937-8.953125 19.960937-19.960937zm0 0" fill="url(#a)"/></svg>